<?xml version="1.0" standalone="no"?>
<!DOCTYPE svg PUBLIC "-//W3C//DTD SVG 20010904//EN"
 "http://www.w3.org/TR/2001/REC-SVG-20010904/DTD/svg10.dtd">
<svg version="1.0" xmlns="http://www.w3.org/2000/svg"
 width="512.000000pt" height="512.000000pt" viewBox="0 0 512.000000 512.000000"
 preserveAspectRatio="xMidYMid meet">
<metadata>
Created by potrace 1.11, written by Peter Selinger 2001-2013
</metadata>
<g transform="translate(0.000000,512.000000) scale(0.100000,-0.100000)"
fill="#000000" stroke="none">
<path d="M1559 5106 c-57 -20 -96 -53 -118 -99 -20 -42 -21 -57 -21 -560 l0
-516 199 -100 c110 -56 202 -101 205 -101 4 0 6 218 6 485 l0 484 378 3 377 3
40 26 c128 84 152 216 58 320 -61 68 -72 69 -612 69 -363 -1 -485 -4 -512 -14z"/>
<path d="M3474 5072 c-18 -9 -336 -318 -709 -687 l-677 -670 -111 -3 -112 -3
165 -85 c91 -47 168 -89 172 -92 4 -4 -178 -193 -405 -420 l-412 -412 -430
430 -429 429 266 268 c234 236 267 273 278 313 36 132 -39 251 -168 267 -96
11 -97 10 -481 -371 -233 -232 -359 -365 -372 -391 -23 -50 -24 -130 -1 -171
14 -25 1136 -1166 1219 -1240 12 -10 99 -98 193 -195 113 -117 170 -183 170
-198 l0 -21 -608 2 -607 3 -5 385 c-5 420 -4 413 -67 472 -79 75 -191 76 -274
1 -69 -63 -70 -72 -67 -630 l3 -490 30 -48 c21 -34 44 -56 75 -71 l45 -23 964
-5 965 -6 91 -89 91 -90 -353 -353 -352 -352 -268 265 c-241 239 -273 267
-316 279 -130 35 -248 -40 -264 -168 -11 -96 -10 -97 371 -481 232 -233 365
-359 391 -372 52 -24 126 -24 173 0 20 11 313 296 655 638 339 340 643 641
674 668 l57 50 116 5 115 5 -177 90 -178 90 410 410 410 410 427 -427 427
-427 -260 -263 c-279 -282 -284 -289 -284 -390 0 -96 78 -183 176 -194 99 -12
98 -13 483 370 233 232 359 365 372 391 23 50 24 119 1 167 -11 23 -310 332
-797 824 -429 432 -781 795 -783 805 -3 18 15 19 602 19 l605 0 3 -377 3 -378
26 -40 c84 -128 216 -152 320 -58 69 63 70 72 67 630 l-3 490 -30 48 c-21 34
-44 56 -75 71 l-45 23 -965 6 -965 6 -87 87 -88 87 350 350 349 349 263 -260
c282 -279 289 -284 390 -284 96 0 183 78 194 176 12 99 13 98 -370 483 -232
233 -365 359 -391 372 -50 23 -130 24 -171 1z m-594 -1798 l165 -166 -215 107
c-118 59 -217 109 -219 111 -3 3 98 114 104 114 0 0 74 -75 165 -166z m47
-347 l153 -153 0 -214 0 -214 -153 -153 -153 -153 -214 0 -214 0 -153 153
-153 153 0 214 0 214 153 153 153 153 214 0 214 0 153 -153z m-467 -1192 l-50
-50 -153 154 -152 154 202 -104 203 -104 -50 -50z"/>
<path d="M3298 905 l-3 -490 -385 -5 c-420 -5 -413 -4 -472 -67 -75 -79 -76
-191 -1 -274 63 -69 72 -70 630 -67 l490 3 48 30 c32 20 56 45 72 74 l23 44 0
521 0 521 -200 100 -200 101 -2 -491z"/>
</g>
</svg>
